<svg xmlns="http://www.w3.org/2000/svg" width="60" height="60" viewBox="0 0 60 60"  xmlns:v="https://vecta.io/nano"><circle cx="30" cy="30" r="28.5" fill="#fff"/><path d="M30,3A27,27,0,1,1,3,30,27,27,0,0,1,30,3m0-3A30,30,0,1,0,60,30,30,30,0,0,0,30,0Z"/><circle cx="19" cy="26" r="5.5" fill="#fff"/><path d="M19,21a5,5,0,1,1-5,5,5,5,0,0,1,5-5m0-1a6,6,0,1,0,6,6,6,6,0,0,0-6-6Z"/><g fill="#fff"><circle cx="19" cy="26" r="3" stroke="#000" stroke-width="3"/><circle cx="41" cy="26" r="5.5"/></g><path d="M41,21a5,5,0,1,1-5,5,5,5,0,0,1,5-5m0-1a6,6,0,1,0,6,6,6,6,0,0,0-6-6Z"/><g fill="#fff" stroke="#000" stroke-width="3"><circle cx="41" cy="26" r="3"/><path d="M20 43.5h20" stroke-miterlimit="10"/></g><path d="M3.5 17.5l10 9m43-9l-10 9m-22 1c0-1.66 2.68-3 6-3m5 3c0-1.66-2.24-3-5-3" stroke="#000" stroke-miterlimit="10" fill="none"/></svg>