<svg xmlns="http://www.w3.org/2000/svg" viewBox="0 -2 276 630">
    <defs><style>.cls-1{fill:#fff}</style></defs>
    <g id="Слой_2" data-name="Слой 2">
        <g id="Слой_1-2" data-name="Слой 1">
            <path class="cls-1" d="M26.24 456.5h75v75h-75z"/>
            <path d="M100.74 457v74h-74v-74h74m1-1h-76v76h76v-76z"/>
            <path class="cls-1" d="M191.24.5h75v75h-75z"/>
            <path d="M265.74 1v74h-74V1h74m1-1h-76v76h76V0z"/>
            <path class="cls-1" transform="rotate(-45 53.745 240.998)" d="M16.24 203.5h75v75h-75z"/>
            <path d="M53.74 188.67L106.07 241l-52.33 52.33L1.41 241l52.33-52.33m0-1.41L0 241l53.74 53.74L107.48 241l-53.74-53.74z"/>
            <path class="cls-1" d="M54.24 76.5h47v47h-47z"/>
            <path d="M100.74 77v46h-46V77h46m1-1h-48v48h48V76z"/>
            <path class="cls-1" transform="rotate(-45 205.026 171.616)" d="M181.53 148.12h47v47h-47z"/>
            <path d="M205 139.1l32.53 32.52L205 204.15l-32.5-32.53L205 139.1m0-1.42l-33.94 33.94L205 205.56l34-33.94-34-33.94z"/>
            <path class="cls-1" d="M167.24 579.5h47v47h-47z"/>
            <path d="M213.74 580v46h-46v-46h46m1-1h-48v48h48v-48z"/>
            <path class="cls-1" d="M112.24 307.12h58.29v58.38h-58.29z"/>
            <path d="M170 307.62V365h-57.26v-57.38H170m1-1h-59.26V366H171v-59.38z"/>
            <path class="cls-1" transform="rotate(-45 228.829 452.396)" d="M195.88 419.32h65.9v66.15h-65.9z"/>
            <path d="M228.74 406.41l46.07 46.07-45.89 45.89-46.07-46.06 45.89-45.9m0-1.41l-47.31 47.31 47.49 47.48 47.3-47.31L228.74 405z"/>
        </g>
    </g>
</svg>